<mxfile host="app.diagrams.net" agent="Mozilla/5.0 (Windows NT 10.0; Win64; x64) AppleWebKit/537.36 (KHTML, like Gecko) Chrome/140.0.0.0 Safari/537.36" version="28.2.0">
  <diagram name="Страница — 1" id="-tzAgPlSIXqiNJKxWt93">
    <mxGraphModel dx="2377" dy="1308" grid="1" gridSize="10" guides="1" tooltips="1" connect="1" arrows="1" fold="1" page="1" pageScale="1" pageWidth="827" pageHeight="1169" math="0" shadow="0">
      <root>
        <mxCell id="0" />
        <mxCell id="1" parent="0" />
        <mxCell id="nowTuroU-FiBTWu5gg2y-3" style="edgeStyle=orthogonalEdgeStyle;rounded=0;orthogonalLoop=1;jettySize=auto;html=1;entryX=0.5;entryY=0;entryDx=0;entryDy=0;" edge="1" parent="1" source="nowTuroU-FiBTWu5gg2y-1" target="nowTuroU-FiBTWu5gg2y-2">
          <mxGeometry relative="1" as="geometry" />
        </mxCell>
        <mxCell id="nowTuroU-FiBTWu5gg2y-1" value="Начало" style="ellipse;whiteSpace=wrap;html=1;" vertex="1" parent="1">
          <mxGeometry x="354" y="40" width="120" height="80" as="geometry" />
        </mxCell>
        <mxCell id="nowTuroU-FiBTWu5gg2y-5" style="edgeStyle=orthogonalEdgeStyle;rounded=0;orthogonalLoop=1;jettySize=auto;html=1;exitX=0;exitY=0.5;exitDx=0;exitDy=0;entryX=0.5;entryY=0;entryDx=0;entryDy=0;" edge="1" parent="1" source="nowTuroU-FiBTWu5gg2y-2" target="nowTuroU-FiBTWu5gg2y-4">
          <mxGeometry relative="1" as="geometry" />
        </mxCell>
        <mxCell id="nowTuroU-FiBTWu5gg2y-2" value="Ввести логин и пароль" style="shape=parallelogram;perimeter=parallelogramPerimeter;whiteSpace=wrap;html=1;fixedSize=1;" vertex="1" parent="1">
          <mxGeometry x="354" y="180" width="120" height="60" as="geometry" />
        </mxCell>
        <mxCell id="nowTuroU-FiBTWu5gg2y-18" style="edgeStyle=orthogonalEdgeStyle;rounded=0;orthogonalLoop=1;jettySize=auto;html=1;entryX=0.5;entryY=0;entryDx=0;entryDy=0;" edge="1" parent="1" source="nowTuroU-FiBTWu5gg2y-4" target="nowTuroU-FiBTWu5gg2y-15">
          <mxGeometry relative="1" as="geometry" />
        </mxCell>
        <mxCell id="nowTuroU-FiBTWu5gg2y-4" value="Проверить логин и пароль" style="rhombus;whiteSpace=wrap;html=1;" vertex="1" parent="1">
          <mxGeometry x="180" y="270" width="140" height="140" as="geometry" />
        </mxCell>
        <mxCell id="nowTuroU-FiBTWu5gg2y-25" style="edgeStyle=orthogonalEdgeStyle;rounded=0;orthogonalLoop=1;jettySize=auto;html=1;entryX=0.5;entryY=0;entryDx=0;entryDy=0;" edge="1" parent="1" source="nowTuroU-FiBTWu5gg2y-6" target="nowTuroU-FiBTWu5gg2y-24">
          <mxGeometry relative="1" as="geometry" />
        </mxCell>
        <mxCell id="nowTuroU-FiBTWu5gg2y-6" value="Установить права доступа" style="rounded=0;whiteSpace=wrap;html=1;" vertex="1" parent="1">
          <mxGeometry x="190" y="670" width="120" height="60" as="geometry" />
        </mxCell>
        <mxCell id="nowTuroU-FiBTWu5gg2y-14" style="edgeStyle=orthogonalEdgeStyle;rounded=0;orthogonalLoop=1;jettySize=auto;html=1;entryX=0.5;entryY=0;entryDx=0;entryDy=0;" edge="1" parent="1" source="nowTuroU-FiBTWu5gg2y-7" target="nowTuroU-FiBTWu5gg2y-13">
          <mxGeometry relative="1" as="geometry" />
        </mxCell>
        <mxCell id="nowTuroU-FiBTWu5gg2y-7" value="Счётчик попыток n = n + 1" style="rounded=0;whiteSpace=wrap;html=1;" vertex="1" parent="1">
          <mxGeometry x="354" y="670" width="120" height="60" as="geometry" />
        </mxCell>
        <mxCell id="nowTuroU-FiBTWu5gg2y-41" style="edgeStyle=orthogonalEdgeStyle;rounded=0;orthogonalLoop=1;jettySize=auto;html=1;entryX=0.5;entryY=0;entryDx=0;entryDy=0;" edge="1" parent="1" source="nowTuroU-FiBTWu5gg2y-11" target="nowTuroU-FiBTWu5gg2y-6">
          <mxGeometry relative="1" as="geometry" />
        </mxCell>
        <mxCell id="nowTuroU-FiBTWu5gg2y-11" value="Да" style="text;html=1;align=center;verticalAlign=middle;whiteSpace=wrap;rounded=0;" vertex="1" parent="1">
          <mxGeometry x="220" y="600" width="60" height="30" as="geometry" />
        </mxCell>
        <mxCell id="nowTuroU-FiBTWu5gg2y-39" style="edgeStyle=orthogonalEdgeStyle;rounded=0;orthogonalLoop=1;jettySize=auto;html=1;entryX=0.5;entryY=0;entryDx=0;entryDy=0;" edge="1" parent="1" source="nowTuroU-FiBTWu5gg2y-12" target="nowTuroU-FiBTWu5gg2y-7">
          <mxGeometry relative="1" as="geometry" />
        </mxCell>
        <mxCell id="nowTuroU-FiBTWu5gg2y-12" value="Нет" style="text;html=1;align=center;verticalAlign=middle;whiteSpace=wrap;rounded=0;" vertex="1" parent="1">
          <mxGeometry x="389" y="497.5" width="50" height="25" as="geometry" />
        </mxCell>
        <mxCell id="nowTuroU-FiBTWu5gg2y-43" style="edgeStyle=orthogonalEdgeStyle;rounded=0;orthogonalLoop=1;jettySize=auto;html=1;entryX=0;entryY=0.5;entryDx=0;entryDy=0;" edge="1" parent="1" source="nowTuroU-FiBTWu5gg2y-13" target="nowTuroU-FiBTWu5gg2y-23">
          <mxGeometry relative="1" as="geometry" />
        </mxCell>
        <mxCell id="nowTuroU-FiBTWu5gg2y-44" style="edgeStyle=orthogonalEdgeStyle;rounded=0;orthogonalLoop=1;jettySize=auto;html=1;entryX=0.5;entryY=0;entryDx=0;entryDy=0;" edge="1" parent="1" source="nowTuroU-FiBTWu5gg2y-13" target="nowTuroU-FiBTWu5gg2y-28">
          <mxGeometry relative="1" as="geometry" />
        </mxCell>
        <mxCell id="nowTuroU-FiBTWu5gg2y-13" value="Попыток &amp;lt; 3?" style="rhombus;whiteSpace=wrap;html=1;" vertex="1" parent="1">
          <mxGeometry x="362" y="850" width="104" height="100" as="geometry" />
        </mxCell>
        <mxCell id="nowTuroU-FiBTWu5gg2y-37" style="edgeStyle=orthogonalEdgeStyle;rounded=0;orthogonalLoop=1;jettySize=auto;html=1;" edge="1" parent="1" source="nowTuroU-FiBTWu5gg2y-15" target="nowTuroU-FiBTWu5gg2y-12">
          <mxGeometry relative="1" as="geometry">
            <Array as="points">
              <mxPoint x="400" y="510" />
              <mxPoint x="400" y="510" />
            </Array>
          </mxGeometry>
        </mxCell>
        <mxCell id="nowTuroU-FiBTWu5gg2y-40" style="edgeStyle=orthogonalEdgeStyle;rounded=0;orthogonalLoop=1;jettySize=auto;html=1;entryX=0.5;entryY=0;entryDx=0;entryDy=0;" edge="1" parent="1" source="nowTuroU-FiBTWu5gg2y-15" target="nowTuroU-FiBTWu5gg2y-11">
          <mxGeometry relative="1" as="geometry" />
        </mxCell>
        <mxCell id="nowTuroU-FiBTWu5gg2y-15" value="Совпадают?" style="rhombus;whiteSpace=wrap;html=1;" vertex="1" parent="1">
          <mxGeometry x="200" y="460" width="100" height="100" as="geometry" />
        </mxCell>
        <mxCell id="nowTuroU-FiBTWu5gg2y-22" style="edgeStyle=orthogonalEdgeStyle;rounded=0;orthogonalLoop=1;jettySize=auto;html=1;entryX=1;entryY=0.5;entryDx=0;entryDy=0;exitX=0.571;exitY=-0.017;exitDx=0;exitDy=0;exitPerimeter=0;" edge="1" parent="1" source="nowTuroU-FiBTWu5gg2y-19">
          <mxGeometry relative="1" as="geometry">
            <mxPoint x="562" y="900" as="sourcePoint" />
            <mxPoint x="466" y="210" as="targetPoint" />
            <Array as="points">
              <mxPoint x="630" y="210" />
            </Array>
          </mxGeometry>
        </mxCell>
        <mxCell id="nowTuroU-FiBTWu5gg2y-19" value="Вывести &quot;Ошибка аторизации&quot;" style="shape=parallelogram;perimeter=parallelogramPerimeter;whiteSpace=wrap;html=1;fixedSize=1;" vertex="1" parent="1">
          <mxGeometry x="550" y="870" width="140" height="60" as="geometry" />
        </mxCell>
        <mxCell id="nowTuroU-FiBTWu5gg2y-42" style="edgeStyle=orthogonalEdgeStyle;rounded=0;orthogonalLoop=1;jettySize=auto;html=1;entryX=0;entryY=0.5;entryDx=0;entryDy=0;" edge="1" parent="1" source="nowTuroU-FiBTWu5gg2y-23" target="nowTuroU-FiBTWu5gg2y-19">
          <mxGeometry relative="1" as="geometry" />
        </mxCell>
        <mxCell id="nowTuroU-FiBTWu5gg2y-23" value="Да" style="text;html=1;align=center;verticalAlign=middle;whiteSpace=wrap;rounded=0;" vertex="1" parent="1">
          <mxGeometry x="500" y="885" width="40" height="30" as="geometry" />
        </mxCell>
        <mxCell id="nowTuroU-FiBTWu5gg2y-33" style="edgeStyle=orthogonalEdgeStyle;rounded=0;orthogonalLoop=1;jettySize=auto;html=1;entryX=1;entryY=0.5;entryDx=0;entryDy=0;" edge="1" parent="1" source="nowTuroU-FiBTWu5gg2y-24" target="nowTuroU-FiBTWu5gg2y-32">
          <mxGeometry relative="1" as="geometry" />
        </mxCell>
        <mxCell id="nowTuroU-FiBTWu5gg2y-24" value="Отобразить главный экран" style="shape=parallelogram;perimeter=parallelogramPerimeter;whiteSpace=wrap;html=1;fixedSize=1;" vertex="1" parent="1">
          <mxGeometry x="165" y="870" width="170" height="60" as="geometry" />
        </mxCell>
        <mxCell id="nowTuroU-FiBTWu5gg2y-45" style="edgeStyle=orthogonalEdgeStyle;rounded=0;orthogonalLoop=1;jettySize=auto;html=1;" edge="1" parent="1" source="nowTuroU-FiBTWu5gg2y-28" target="nowTuroU-FiBTWu5gg2y-29">
          <mxGeometry relative="1" as="geometry" />
        </mxCell>
        <mxCell id="nowTuroU-FiBTWu5gg2y-28" value="Нет" style="text;html=1;align=center;verticalAlign=middle;whiteSpace=wrap;rounded=0;" vertex="1" parent="1">
          <mxGeometry x="384" y="970" width="60" height="30" as="geometry" />
        </mxCell>
        <mxCell id="nowTuroU-FiBTWu5gg2y-31" style="edgeStyle=orthogonalEdgeStyle;rounded=0;orthogonalLoop=1;jettySize=auto;html=1;" edge="1" parent="1" source="nowTuroU-FiBTWu5gg2y-29" target="nowTuroU-FiBTWu5gg2y-30">
          <mxGeometry relative="1" as="geometry" />
        </mxCell>
        <mxCell id="nowTuroU-FiBTWu5gg2y-29" value="Заблокировать вход" style="rounded=0;whiteSpace=wrap;html=1;" vertex="1" parent="1">
          <mxGeometry x="354" y="1020" width="120" height="60" as="geometry" />
        </mxCell>
        <mxCell id="nowTuroU-FiBTWu5gg2y-34" style="edgeStyle=orthogonalEdgeStyle;rounded=0;orthogonalLoop=1;jettySize=auto;html=1;entryX=0.5;entryY=1;entryDx=0;entryDy=0;" edge="1" parent="1" source="nowTuroU-FiBTWu5gg2y-30" target="nowTuroU-FiBTWu5gg2y-32">
          <mxGeometry relative="1" as="geometry" />
        </mxCell>
        <mxCell id="nowTuroU-FiBTWu5gg2y-30" value="Вывести &quot;Вход заблокирован&quot;" style="shape=parallelogram;perimeter=parallelogramPerimeter;whiteSpace=wrap;html=1;fixedSize=1;" vertex="1" parent="1">
          <mxGeometry x="10" y="1020" width="120" height="60" as="geometry" />
        </mxCell>
        <mxCell id="nowTuroU-FiBTWu5gg2y-32" value="Конец" style="ellipse;whiteSpace=wrap;html=1;" vertex="1" parent="1">
          <mxGeometry x="10" y="860" width="120" height="80" as="geometry" />
        </mxCell>
      </root>
    </mxGraphModel>
  </diagram>
</mxfile>
